<svg xmlns="http://www.w3.org/2000/svg" version="1.1" xmlns:xlink="http://www.w3.org/1999/xlink" xmlns:svgjs="http://svgjs.dev/svgjs" width="100%" height="100%" viewBox="0 0 1000 600"><rect width="1000" height="600" x="0" y="0" fill="#00214d"/><g><rect width="333.3333333333333" height="333.3333333333333" rx="13.333333333333334" ry="13.333333333333334" y="352.13396422023254" fill="#f7f7f9" transform="matrix(0.3788892110365564,0,0,0.3788892110365565,0,103.43203627173848)" x="329.9118347167969"/><path d="M541.5935224298279 593.8006245965381L529.4792943433519 560.2535314339891L463.6776931490688 560.2535314339891L451.56346506259274 593.8006245965381L430.7919226115879 593.8006245965381L485.32097906039075 443.8006291833484L508.0464292672788 443.8006291833484L562.3650648808327 593.8006245965381L541.5935224298279 593.8006245965381ZM469.2989354621482 544.2314878357465L523.8580520302723 544.2314878357465L496.56346368654965 468.0591454756218L469.2989354621482 544.2314878357465Z " fill="blue" transform="matrix(0.3788892110365564,0,0,0.3788892110365565,0,103.43203627173848)"/><path d="M746.5784901935845 536.7266435097406Q746.5784901935845 519.8992747935401 753.3650653452421 507.18835330047625Q760.1794543294886 494.47743180741236 772.1115885100672 487.46834599504456Q784.015908858057 480.45926018267676 798.8406816278668 480.45926018267676L798.8406816278668 480.45926018267676Q811.6628584512857 480.45926018267676 822.6771361564352 486.3557926914941Q833.6914138615846 492.2523252003115 839.476691040047 501.87591127602286L839.476691040047 501.87591127602286L839.476691040047 443.80062883068945L857.9172620463955 443.80062883068945L857.9172620463955 591.9927288636092L839.476691040047 591.9927288636092L839.476691040047 571.3548650827483Q834.0808075178272 581.1731479865811 823.4559234689204 587.4868879842298Q812.8588532526023 593.8006279818786 798.6459847997454 593.8006279818786L798.6459847997454 593.8006279818786Q784.015908858057 593.8006279818786 772.1115885100672 586.5968453413894Q760.1794543294886 579.3652488683116 753.3650653452421 566.3483752167713Q746.5784901935845 553.3315015652311 746.5784901935845 536.7266435097406L746.5784901935845 536.7266435097406ZM839.476691040047 536.9213403378619Q839.476691040047 524.5163710032746 834.4702011740699 515.2821785838057Q829.4637113080928 506.0757999969258 820.9526785359319 501.18056546130384Q812.441645763771 496.2575170930931 802.2339692036956 496.2575170930931L802.2339692036956 496.2575170930931Q792.0262926436203 496.2575170930931 783.6265152018143 501.0693101309488Q775.1989239274197 505.8811031688045 770.1924340614428 515.0874817556844Q765.1859441954657 524.2938603425644 765.1859441954657 536.7266435097406L765.1859441954657 536.7266435097406Q765.1859441954657 549.3263096724495 770.1924340614428 558.6439435896846Q775.1989239274197 567.9615775069195 783.6265152018143 572.8568120425415Q792.0262926436203 577.7798604107521 802.2339692036956 577.7798604107521L802.2339692036956 577.7798604107521Q812.441645763771 577.7798604107521 820.9526785359319 572.8568120425415Q829.4637113080928 567.9615775069195 834.4702011740699 558.6439435896846Q839.476691040047 549.3263096724495 839.476691040047 536.9213403378619L839.476691040047 536.9213403378619ZM988.892599706872 532.9161484450804Q988.892599706872 538.1173351391787 988.2806953899194 543.9304261502298L988.2806953899194 543.9304261502298L900.5558674049664 543.9304261502298Q901.5571653781619 560.1458905494776 911.681400440471 569.2688276385912Q921.80563550278 578.3639508951161 936.2132007837583 578.3639508951161L936.2132007837583 578.3639508951161Q948.034079633982 578.3639508951161 955.93320808919 572.8568120425415Q963.8601503769869 567.3496731899668 967.0587411246945 558.1432946030868L967.0587411246945 558.1432946030868L986.6674930997713 558.1432946030868Q982.272907550747 573.9693653460919 969.0613370710853 583.8710897476909Q955.8497665914238 593.8006279818786 936.2132007837583 593.8006279818786L936.2132007837583 593.8006279818786Q920.5818268688745 593.8006279818786 908.2881128646422 586.7915421695108Q895.9665850278209 579.782456357143 888.957499215453 566.849024203369Q881.9484134030852 553.9434058821839 881.9484134030852 536.9213403378619L881.9484134030852 536.9213403378619Q881.9484134030852 519.8992747935401 888.7628023873317 507.0770979701212Q895.5493775389896 494.2549211467023 907.8709053758107 487.3570906646895Q920.1924332126318 480.45926018267676 936.2132007837583 480.45926018267676L936.2132007837583 480.45926018267676Q951.8445746986422 480.45926018267676 963.8601503769869 487.24583533433446Q975.8757260553318 494.060224318581 982.3841628811019 505.99235849915954Q988.892599706872 517.8966788471494 988.892599706872 532.9161484450804L988.892599706872 532.9161484450804ZM970.0626350442808 529.1056533804201Q970.0626350442808 518.7032799922233 965.4455388345464 511.1935451932579Q960.8562564574008 503.6838103942923 952.9293141696039 499.762059999277Q945.0301857143957 495.86812343685045 935.4065996386844 495.86812343685045L935.4065996386844 495.86812343685045Q921.58312484207 495.86812343685045 911.8760972685923 504.68510836748777Q902.1690696951146 513.502093298125 900.7783780656766 529.1056533804201L900.7783780656766 529.1056533804201L970.0626350442808 529.1056533804201ZM1019.5156293870982 482.23934546835744L1053.7544573038633 575.1653601474087L1087.7985883925069 482.23934546835744L1107.2404573720512 482.23934546835744L1064.1846445246488 591.9927288636092L1042.9626902594239 591.9927288636092L999.9068774120217 482.23934546835744L1019.5156293870982 482.23934546835744ZM1218.968622881105 591.9927288636092L1207.759648347834 560.9524916945517L1146.8751688110358 560.9524916945517L1135.666194277765 591.9927288636092L1116.446835958931 591.9927288636092L1166.9011282749439 453.20170424569073L1187.9283857120474 453.20170424569073L1238.2157950325277 591.9927288636092L1218.968622881105 591.9927288636092ZM1152.1041693377229 546.1277189247419L1202.5584616537358 546.1277189247419L1177.3313154957293 475.64746714482106L1152.1041693377229 546.1277189247419ZM1278.462410788465 502.68251242109693Q1284.052991138806 492.8642295172642 1294.872572015834 486.6617448499705Q1305.6921528928622 480.45926018267676 1319.5156276894766 480.45926018267676L1319.5156276894766 480.45926018267676Q1334.3404004592862 480.45926018267676 1346.1334654769212 487.46834599504456Q1357.9543443271446 494.47743180741236 1364.768733311391 507.18835330047625Q1371.5831222956376 519.8992747935401 1371.5831222956376 536.7266435097406L1371.5831222956376 536.7266435097406Q1371.5831222956376 553.3315015652311 1364.768733311391 566.3483752167713Q1357.9543443271446 579.3652488683116 1346.0500239791547 586.5968453413894Q1334.1178897985762 593.8006279818786 1319.5156276894766 593.8006279818786L1319.5156276894766 593.8006279818786Q1305.3027592366195 593.8006279818786 1294.5666198573579 587.598143314585Q1283.8582943106846 581.3678448147024 1278.462410788465 571.7720725715798L1278.462410788465 571.7720725715798L1278.462410788465 591.9927288636092L1260.2443504428265 591.9927288636092L1260.2443504428265 443.80062883068945L1278.462410788465 443.80062883068945L1278.462410788465 502.68251242109693ZM1352.9478544611675 536.7266435097406Q1352.9478544611675 524.2938603425644 1347.9413645951904 515.0874817556844Q1342.9348747292136 505.8811031688045 1334.4238419570527 501.0693101309488Q1325.9128091848916 496.2575170930931 1315.7051326248163 496.2575170930931L1315.7051326248163 496.2575170930931Q1305.6921528928622 496.2575170930931 1297.1811201207013 501.18056546130384Q1288.6700873485404 506.0757999969258 1283.5523421522084 515.3934339141608Q1278.462410788465 524.7110678313959 1278.462410788465 536.9213403378619L1278.462410788465 536.9213403378619Q1278.462410788465 549.3263096724495 1283.5523421522084 558.6439435896846Q1288.6700873485404 567.9615775069195 1297.1811201207013 572.8568120425415Q1305.6921528928622 577.7798604107521 1315.7051326248163 577.7798604107521L1315.7051326248163 577.7798604107521Q1325.9128091848916 577.7798604107521 1334.4238419570527 572.8568120425415Q1342.9348747292136 567.9615775069195 1347.9413645951904 558.6439435896846Q1352.9478544611675 549.3263096724495 1352.9478544611675 536.7266435097406L1352.9478544611675 536.7266435097406ZM1388.799884668081 536.7266435097406Q1388.799884668081 519.8992747935401 1395.6142736523273 507.18835330047625Q1402.4286626365738 494.47743180741236 1414.3329829845636 487.46834599504456Q1426.2373033325534 480.45926018267676 1441.062076102363 480.45926018267676L1441.062076102363 480.45926018267676Q1453.884252925782 480.45926018267676 1464.8985306309316 486.3557926914941Q1475.9128083360808 492.2523252003115 1481.725899347132 501.87591127602286L1481.725899347132 501.87591127602286L1481.725899347132 443.80062883068945L1500.138656520892 443.80062883068945L1500.138656520892 591.9927288636092L1481.725899347132 591.9927288636092L1481.725899347132 571.3548650827483Q1476.3022019923235 581.1731479865811 1465.7051317760054 587.4868879842298Q1455.0802477270988 593.8006279818786 1440.8673792742418 593.8006279818786L1440.8673792742418 593.8006279818786Q1426.2373033325534 593.8006279818786 1414.3329829845636 586.5968453413894Q1402.4286626365738 579.3652488683116 1395.6142736523273 566.3483752167713Q1388.799884668081 553.3315015652311 1388.799884668081 536.7266435097406L1388.799884668081 536.7266435097406ZM1481.725899347132 536.9213403378619Q1481.725899347132 524.5163710032746 1476.719409481155 515.2821785838057Q1471.712919615178 506.0757999969258 1463.201886843017 501.18056546130384Q1454.6908540708562 496.2575170930931 1444.4831775107807 496.2575170930931L1444.4831775107807 496.2575170930931Q1434.2476871181166 496.2575170930931 1425.8479096763106 501.0693101309488Q1417.4481322345048 505.8811031688045 1412.4416423685277 515.0874817556844Q1407.4351525025506 524.2938603425644 1407.4351525025506 536.7266435097406L1407.4351525025506 536.7266435097406Q1407.4351525025506 549.3263096724495 1412.4416423685277 558.6439435896846Q1417.4481322345048 567.9615775069195 1425.8479096763106 572.8568120425415Q1434.2476871181166 577.7798604107521 1444.4831775107807 577.7798604107521L1444.4831775107807 577.7798604107521Q1454.6908540708562 577.7798604107521 1463.201886843017 572.8568120425415Q1471.712919615178 567.9615775069195 1476.719409481155 558.6439435896846Q1481.725899347132 549.3263096724495 1481.725899347132 536.9213403378619L1481.725899347132 536.9213403378619ZM1610.086736744265 482.23934546835744L1628.3047970899036 482.23934546835744L1628.3047970899036 591.9927288636092L1610.086736744265 591.9927288636092L1610.086736744265 575.7772644643613Q1604.8855500501666 584.1770419061673 1595.5679161329315 588.877579613668Q1586.2502822156966 593.6059311537573 1575.041307682426 593.6059311537573L1575.041307682426 593.6059311537573Q1562.219130859007 593.6059311537573 1552.0114542989315 588.293489129304Q1541.803777738856 582.9810471048505 1535.8794313974502 572.3561630559437Q1529.9828988886327 561.7590928396257 1529.9828988886327 546.5449264135734L1529.9828988886327 546.5449264135734L1529.9828988886327 482.23934546835744L1548.00626240615 482.23934546835744L1548.00626240615 544.1251229783511Q1548.00626240615 560.3405873775989 1556.2113430198344 569.0741308104699Q1564.416423633519 577.7798604107521 1578.6571059189648 577.7798604107521L1578.6571059189648 577.7798604107521Q1593.2593680280645 577.7798604107521 1601.6869593024592 568.7681786519935Q1610.086736744265 559.756496893235 1610.086736744265 542.5397345207917L1610.086736744265 542.5397345207917L1610.086736744265 482.23934546835744ZM1659.1503374308397 443.80062883068945L1677.3683977764783 443.80062883068945L1677.3683977764783 591.9927288636092L1659.1503374308397 591.9927288636092L1659.1503374308397 443.80062883068945ZM1747.2645590720351 593.8006279818786Q1734.6370790767376 593.8006279818786 1724.6240993447834 589.4894839306206Q1714.6111196128297 585.1783398793626 1708.8258424343674 577.4739082522759Q1703.012751423316 569.769476625189 1702.4008471063635 559.756496893235L1702.4008471063635 559.756496893235L1721.2308117689547 559.756496893235Q1722.037412914029 567.9615775069195 1728.9352433960419 573.1627642010179Q1735.860887710643 578.3639508951161 1747.0698622439138 578.3639508951161L1747.0698622439138 578.3639508951161Q1757.4722356321106 578.3639508951161 1763.480023471283 573.7746685179706Q1769.4878113104553 569.1575723082362 1769.4878113104553 562.1484864958684L1769.4878113104553 562.1484864958684Q1769.4878113104553 554.9447038553792 1763.0906298150403 551.4401609491954Q1756.6656344870364 547.9356180430113 1743.2593671792536 544.5423304671826L1743.2593671792536 544.5423304671826Q1731.0490946727875 541.3159258868862 1723.3446630457006 538.0338936414124Q1715.612417586025 534.7240475633498 1710.1052787334504 528.2156107375797Q1704.5981398808756 521.7071739118096 1704.5981398808756 511.0822898629028L1704.5981398808756 511.0822898629028Q1704.5981398808756 502.68251242109693 1709.6046297468527 495.67342660872913Q1714.6111196128297 488.6643407963613 1723.8453120322984 484.5478935732246Q1733.051690619178 480.45926018267676 1744.872569469402 480.45926018267676L1744.872569469402 480.45926018267676Q1763.0906298150403 480.45926018267676 1774.2996043483115 489.6656387695567Q1785.508578881582 498.8720173564367 1786.3151800266562 514.8927849275631L1786.3151800266562 514.8927849275631L1768.0971196810171 514.8927849275631Q1767.4852153640647 506.27049682504713 1761.1714753664157 501.0693101309488Q1754.8855492013556 495.86812343685045 1744.260665152449 495.86812343685045L1744.260665152449 495.86812343685045Q1734.4423822486162 495.86812343685045 1728.6292912375652 500.0680121577534Q1722.8440140591028 504.26790087865635 1722.8440140591028 511.0822898629028L1722.8440140591028 511.0822898629028Q1722.8440140591028 516.5059872177112 1726.348556965287 520.0105301238953Q1729.8530998714707 523.5150730300791 1735.1377280633353 525.6011104742362Q1740.4501700877888 527.714961750982 1749.8790593353785 530.3016481817368L1749.8790593353785 530.3016481817368Q1761.6721243530135 533.5280527620332 1769.0984176542127 536.6153881793857Q1776.4968971228234 539.7305374293269 1781.809339147277 545.9330220966206Q1787.12178117173 552.1355067639143 1787.3164779998513 562.1484864958684L1787.3164779998513 562.1484864958684Q1787.3164779998513 571.160168254627 1782.3099881338742 578.3639508951161Q1777.303498267897 585.5955473681942 1768.1805611787834 589.684180758742Q1759.085437922259 593.8006279818786 1747.2645590720351 593.8006279818786L1747.2645590720351 593.8006279818786ZM1806.1464426624427 536.7266435097406Q1806.1464426624427 519.8992747935401 1812.960831646689 507.18835330047625Q1819.747406798347 494.47743180741236 1831.6795409789254 487.46834599504456Q1843.5838613269154 480.45926018267676 1858.2139372686036 480.45926018267676L1858.2139372686036 480.45926018267676Q1872.621502549582 480.45926018267676 1883.2463865984885 486.6617448499705Q1893.8434568148066 492.8642295172642 1899.0724573414939 502.2653049322655L1899.0724573414939 502.2653049322655L1899.0724573414939 482.23934546835744L1917.4852145152538 482.23934546835744L1917.4852145152538 591.9927288636092L1899.0724573414939 591.9927288636092L1899.0724573414939 571.5773757434584Q1893.6487599866853 581.1731479865811 1882.9404344400125 587.4868879842298Q1872.2321088933393 593.8006279818786 1858.0192404404822 593.8006279818786L1858.0192404404822 593.8006279818786Q1843.3891644987937 593.8006279818786 1831.5682856485707 586.5968453413894Q1819.747406798347 579.3652488683116 1812.960831646689 566.3483752167713Q1806.1464426624427 553.3315015652311 1806.1464426624427 536.7266435097406L1806.1464426624427 536.7266435097406ZM1899.0724573414939 536.9213403378619Q1899.0724573414939 524.5163710032746 1894.0659674755168 515.2821785838057Q1889.0594776095397 506.0757999969258 1880.5484448373788 501.18056546130384Q1872.037412065218 496.2575170930931 1861.801921672554 496.2575170930931L1861.801921672554 496.2575170930931Q1851.5942451124786 496.2575170930931 1843.1944676706728 501.0693101309488Q1834.7668763962781 505.8811031688045 1829.760386530301 515.0874817556844Q1824.753896664324 524.2938603425644 1824.753896664324 536.7266435097406L1824.753896664324 536.7266435097406Q1824.753896664324 549.3263096724495 1829.760386530301 558.6439435896846Q1834.7668763962781 567.9615775069195 1843.1944676706728 572.8568120425415Q1851.5942451124786 577.7798604107521 1861.801921672554 577.7798604107521L1861.801921672554 577.7798604107521Q1872.037412065218 577.7798604107521 1880.5484448373788 572.8568120425415Q1889.0594776095397 567.9615775069195 1894.0659674755168 558.6439435896846Q1899.0724573414939 549.3263096724495 1899.0724573414939 536.9213403378619L1899.0724573414939 536.9213403378619ZM1948.33075485619 443.80062883068945L1966.5488152018286 443.80062883068945L1966.5488152018286 591.9927288636092L1948.33075485619 591.9927288636092L1948.33075485619 443.80062883068945ZM1990.7746633866398 536.7266435097406Q1990.7746633866398 519.8992747935401 1997.589052370886 507.18835330047625Q2004.4034413551328 494.47743180741236 2016.3077617031224 487.46834599504456Q2028.239895883701 480.45926018267676 2042.8421579928006 480.45926018267676L2042.8421579928006 480.45926018267676Q2057.277537106367 480.45926018267676 2067.8746073226857 486.6617448499705Q2078.4994913715927 492.8642295172642 2083.700678065691 502.2653049322655L2083.700678065691 502.2653049322655L2083.700678065691 482.23934546835744L2102.113435239451 482.23934546835744L2102.113435239451 591.9927288636092L2083.700678065691 591.9927288636092L2083.700678065691 571.5773757434584Q2078.304794543471 581.1731479865811 2067.5686551642093 587.4868879842298Q2056.860329617536 593.8006279818786 2042.6474611646793 593.8006279818786L2042.6474611646793 593.8006279818786Q2028.0173852229907 593.8006279818786 2016.2243202053562 586.5968453413894Q2004.4034413551328 579.3652488683116 1997.589052370886 566.3483752167713Q1990.7746633866398 553.3315015652311 1990.7746633866398 536.7266435097406L1990.7746633866398 536.7266435097406ZM2083.700678065691 536.9213403378619Q2083.700678065691 524.5163710032746 2078.6941881997136 515.2821785838057Q2073.687698333737 506.0757999969258 2065.1766655615756 501.18056546130384Q2056.665632789415 496.2575170930931 2046.4579562293395 496.2575170930931L2046.4579562293395 496.2575170930931Q2036.250279669264 496.2575170930931 2027.8226883948698 501.0693101309488Q2019.4229109530636 505.8811031688045 2014.4164210870865 515.0874817556844Q2009.4099312211094 524.2938603425644 2009.4099312211094 536.7266435097406L2009.4099312211094 536.7266435097406Q2009.4099312211094 549.3263096724495 2014.4164210870865 558.6439435896846Q2019.4229109530636 567.9615775069195 2027.8226883948698 572.8568120425415Q2036.250279669264 577.7798604107521 2046.4579562293395 577.7798604107521L2046.4579562293395 577.7798604107521Q2056.665632789415 577.7798604107521 2065.1766655615756 572.8568120425415Q2073.687698333737 567.9615775069195 2078.6941881997136 558.6439435896846Q2083.700678065691 549.3263096724495 2083.700678065691 536.9213403378619L2083.700678065691 536.9213403378619ZM2264.9356112140586 480.23674952196666Q2277.7577880374774 480.23674952196666 2287.7707677694316 485.54919154642005Q2297.7837475013857 490.86163357087344 2303.596838512437 501.4865176197802Q2309.3821156909 512.0835878360982 2309.3821156909 527.2977542621506L2309.3821156909 527.2977542621506L2309.3821156909 591.9927288636092L2291.3587521733816 591.9927288636092L2291.3587521733816 529.9122545254942Q2291.3587521733816 513.502093298125 2283.2649268900523 504.76854986525404Q2275.1432877741345 496.0628202649718 2261.31981297752 496.0628202649718L2261.31981297752 496.0628202649718Q2247.106944524663 496.0628202649718 2238.7071670828573 505.18575735408547Q2230.279575808462 514.2808806106104 2230.279575808462 531.5254568156423L2230.279575808462 531.5254568156423L2230.279575808462 591.9927288636092L2212.256212290945 591.9927288636092L2212.256212290945 529.9122545254942Q2212.256212290945 513.502093298125 2204.1623870076155 504.76854986525404Q2196.0407478916977 496.0628202649718 2182.2172730950833 496.0628202649718L2182.2172730950833 496.0628202649718Q2168.0044046422263 496.0628202649718 2159.6046272004205 505.18575735408547Q2151.1770359260254 514.2808806106104 2151.1770359260254 531.5254568156423L2151.1770359260254 531.5254568156423L2151.1770359260254 591.9927288636092L2132.9589755803872 591.9927288636092L2132.9589755803872 482.23934546835744L2151.1770359260254 482.23934546835744L2151.1770359260254 498.06541621136256Q2156.600733280834 489.47094194143534 2165.695856537359 484.853845731701Q2174.818793626472 480.23674952196666 2185.833071331622 480.23674952196666L2185.833071331622 480.23674952196666Q2199.656546128236 480.23674952196666 2210.2536163445548 486.46704802184917Q2220.878500393461 492.6695326891429 2226.0796870875593 504.68510836748777L2226.0796870875593 504.68510836748777Q2230.696783297294 493.05892634538554 2241.293853513612 486.6617448499705Q2251.918737562519 480.23674952196666 2264.9356112140586 480.23674952196666L2264.9356112140586 480.23674952196666Z " fill="#f7f7f9" transform="matrix(0.3788892110365564,0,0,0.3788892110365565,0,103.43203627173848)"/></g></svg>